<?xml version="1.0" standalone="no"?>
<!DOCTYPE svg PUBLIC "-//W3C//DTD SVG 20010904//EN"
 "http://www.w3.org/TR/2001/REC-SVG-20010904/DTD/svg10.dtd">
<svg version="1.0" xmlns="http://www.w3.org/2000/svg"
 width="45.000000pt" height="48.000000pt" viewBox="0 0 45.000000 48.000000"
 preserveAspectRatio="xMidYMid meet">

<g transform="translate(0.000000,48.000000) scale(0.100000,-0.100000)"
fill="#000000" stroke="none">
<path d="M137 363 c-4 -3 -7 -60 -7 -125 0 -101 2 -120 16 -125 26 -10 49 11
52 46 3 28 7 31 35 31 41 0 71 20 86 59 16 37 -6 84 -49 106 -29 15 -121 21
-133 8z m150 -34 c27 -26 30 -65 7 -97 -13 -19 -24 -22 -78 -22 -49 0 -65 4
-70 16 -7 18 -8 118 -2 125 2 2 30 3 62 2 43 -2 63 -8 81 -24z"/>
<path d="M186 295 c-15 -40 -7 -55 28 -55 40 0 65 24 49 48 -14 23 -69 28 -77
7z m69 -5 c9 -15 -14 -40 -36 -40 -14 0 -19 7 -19 25 0 20 5 25 24 25 14 0 28
-5 31 -10z"/>
</g>
</svg>
